# xmcd CD database file
#
# Track frame offsets:
#	150
#	15629
#	33430
#	51913
#	68974
#	84466
#	99972
#	114987
#	131549
#	150867
#	167639
#	185942
#
# Disc length: 2669 seconds
#
# Revision: 0
# Processed by: cddbd v1.5.2PL0 Copyright (c) Steve Scherf et al.
# Submitted via: CDex 1.51
#
DISCID=920a6b0c
DTITLE=Jimmy Wayne - Do You Believe Me Now
DYEAR=2008
DGENRE=Country
TTITLE0=Do You Believe Me Now
TTITLE1=I Will
TTITLE2=I'll Be That
TTITLE3=Brighter Days
TTITLE4=One on One
TTITLE5=Kerosene Kid
TTITLE6=True Believer
TTITLE7=I Didn't Come Here to Lose
TTITLE8=Where You're Going
TTITLE9=Stay Gone
TTITLE10=I Love You This Much
TTITLE11=No Good for Me
EXTD=YEAR: 2008
EXTT0=
EXTT1=
EXTT2=
EXTT3=
EXTT4=
EXTT5=
EXTT6=
EXTT7=
EXTT8=
EXTT9=
EXTT10=
EXTT11=
PLAYORDER=
